<?xml version="1.0" encoding="UTF-8"?>
<svg version="1.1" xmlns="http://www.w3.org/2000/svg" width="100%" height="100%">
<path d="M0 0 C0.5775 0.165 1.155 0.33 1.75 0.5 C4.44978103 1.09995134 6.32055583 0.56409351 9 0 C9.66 0.33 10.32 0.66 11 1 C11.99 0.67 12.98 0.34 14 0 C15.85790076 1.85790076 15.17949707 4.42472159 15.23046875 6.89453125 C15 9 15 9 13 13 C9.04 13 5.08 13 1 13 C-1.3638665 8.27226701 -1.25393971 6.16344069 -1 1 C-0.67 0.67 -0.34 0.34 0 0 Z " fill="#339AD5" transform="translate(1,0)"/>
<path d="M0 0 C0.66 0 1.32 0 2 0 C2.12375 0.804375 2.2475 1.60875 2.375 2.4375 C2.58125 3.283125 2.7875 4.12875 3 5 C3.66 5.33 4.32 5.66 5 6 C5.33 4.35 5.66 2.7 6 1 C6.66 1 7.32 1 8 1 C7.125 6.75 7.125 6.75 6 9 C2.7 9 -0.6 9 -4 9 C-5.25664978 6.09399739 -6 4.20395416 -6 1 C-5.34 1 -4.68 1 -4 1 C-3.67 2.65 -3.34 4.3 -3 6 C-2.34 5.67 -1.68 5.34 -1 5 C-0.34444881 2.47266765 -0.34444881 2.47266765 0 0 Z " fill="#EAF2FA" transform="translate(7,2)"/>
</svg>
